<?xml version="1.0" encoding="utf-8"?>
<!-- Generator: Adobe Illustrator 15.0.1, SVG Export Plug-In . SVG Version: 6.00 Build 0)  -->
<!DOCTYPE svg PUBLIC "-//W3C//DTD SVG 1.1//EN" "http://www.w3.org/Graphics/SVG/1.1/DTD/svg11.dtd">
<svg version="1.1" id="Layer_1" xmlns="http://www.w3.org/2000/svg" xmlns:xlink="http://www.w3.org/1999/xlink" x="0px" y="0px"
	 width="72px" height="72.063px" viewBox="0 0 72 72.063" style="enable-background:new 0 0 72 72.063;" xml:space="preserve">
<style type="text/css">
<![CDATA[
	.st0{fill:#0683F1;}
]]>
</style>
<path class="st0" d="M0,72.063h72V0H0V72.063z M34.914,47.259c-0.848,0.65-1.851,1.095-3.005,1.335
	c-1.154,0.241-2.408,0.361-3.758,0.361H16.166V22.356h12.855c3.243,0.049,5.54,0.994,6.892,2.834
	c0.815,1.131,1.222,2.484,1.222,4.06c0,1.624-0.412,2.93-1.232,3.917c-0.461,0.552-1.135,1.057-2.03,1.515
	c1.358,0.493,2.382,1.275,3.073,2.346c0.691,1.07,1.035,2.369,1.035,3.897c0,1.576-0.394,2.989-1.182,4.241
	C36.296,45.997,35.668,46.694,34.914,47.259 M58.991,40.563H44.664c0.079,1.974,0.766,3.357,2.058,4.151
	c0.784,0.494,1.728,0.74,2.834,0.74c1.171,0,2.123-0.301,2.856-0.902c0.399-0.325,0.752-0.776,1.058-1.354h5.251
	c-0.139,1.168-0.774,2.352-1.908,3.555c-1.76,1.914-4.227,2.869-7.398,2.869c-2.618,0-4.928-0.807-6.929-2.419
	c-2.001-1.614-3.001-4.238-3.001-7.875c0-3.407,0.903-6.02,2.71-7.837c1.807-1.818,4.151-2.728,7.034-2.728
	c1.711,0,3.254,0.307,4.625,0.921c1.372,0.616,2.506,1.585,3.398,2.911c0.806,1.167,1.328,2.524,1.566,4.065
	C58.958,37.564,59.014,38.865,58.991,40.563 M43.114,23.886h11.559v2.686H43.114V23.886z"/>
<path class="st0" d="M30.747,32.183c0.723-0.439,1.083-1.217,1.083-2.336c0-1.24-0.477-2.058-1.431-2.454
	c-0.822-0.277-1.868-0.415-3.141-0.415h-5.787v5.863h6.464C29.091,32.841,30.029,32.621,30.747,32.183"/>
<path class="st0" d="M30.676,37.696c-0.632-0.289-1.516-0.439-2.658-0.451h-6.547v7.091h6.458c1.153,0,2.052-0.157,2.694-0.47
	c1.166-0.577,1.747-1.685,1.747-3.32C32.37,39.163,31.805,38.212,30.676,37.696"/>
<path class="st0" d="M49.23,33.005c-1.319,0-2.343,0.374-3.07,1.123s-1.182,1.764-1.37,3.044h8.86
	c-0.094-1.364-0.55-2.401-1.37-3.107C51.461,33.358,50.444,33.005,49.23,33.005"/>
</svg>
