<?xml version="1.0" encoding="utf-8"?>
<!-- Generator: Adobe Illustrator 15.0.1, SVG Export Plug-In . SVG Version: 6.00 Build 0)  -->
<!DOCTYPE svg PUBLIC "-//W3C//DTD SVG 1.1//EN" "http://www.w3.org/Graphics/SVG/1.1/DTD/svg11.dtd">
<svg version="1.1" id="Layer_1" xmlns="http://www.w3.org/2000/svg" xmlns:xlink="http://www.w3.org/1999/xlink" x="0px" y="0px"
	 width="72px" height="72.063px" viewBox="0 0 72 72.063" enable-background="new 0 0 72 72.063" xml:space="preserve">
<path fill="#D13F2D" d="M0,0v72.063h35.574c0.129,0.002,0.256,0.01,0.386,0.01s0.257-0.008,0.386-0.01H72V0H0z M30.077,57.62
	c-6.72,0-12.322-2.896-12.322-7.771c0-3.763,2.382-8.646,13.512-8.646c-1.653-1.348-2.059-3.232-1.047-5.271
	c-6.519,0-9.856-3.832-9.856-8.697c0-4.76,3.54-9.086,10.76-9.086h11.565l-2.584,2.711h-3.037c2.145,1.228,3.283,3.756,3.283,6.541
	c0,2.556-1.408,4.627-3.416,6.181c-3.567,2.758-2.657,4.297,1.08,7.022c3.685,2.76,4.902,4.889,4.902,8.147
	C42.918,52.751,39.268,57.62,30.077,57.62 M58.001,26.685h-5.336v5.334h-2.668v-5.334h-5.335v-2.668h5.335v-5.336h2.668v5.336h5.336
	V26.685z"/>
<path fill="#D13F2D" d="M35.704,27.573c-0.538-4.094-3.205-7.451-6.321-7.545c-3.118-0.094-5.208,3.039-4.669,7.135
	c0.538,4.094,3.5,6.951,6.618,7.046C34.448,34.302,36.242,31.667,35.704,27.573"/>
<path fill="#D13F2D" d="M30.691,42.587c-4.643-0.051-8.578,2.936-8.578,6.396c0,3.532,3.353,6.472,7.997,6.472
	c5.937,0,8.808-2.76,8.808-6.291C38.918,45.796,35.845,42.587,30.691,42.587"/>
</svg>
