<?xml version="1.0" encoding="utf-8"?>
<!-- Generator: Adobe Illustrator 15.0.1, SVG Export Plug-In . SVG Version: 6.00 Build 0)  -->
<!DOCTYPE svg PUBLIC "-//W3C//DTD SVG 1.1//EN" "http://www.w3.org/Graphics/SVG/1.1/DTD/svg11.dtd">
<svg version="1.1" id="Layer_1" xmlns="http://www.w3.org/2000/svg" xmlns:xlink="http://www.w3.org/1999/xlink" x="0px" y="0px"
	 width="72px" height="72px" viewBox="0 0 72 72" enable-background="new 0 0 72 72" xml:space="preserve">
<g>
	<path fill="#3E739D" d="M0,0v72h35.894H72V0H0z M43.772,28.954c-1.88-1.906-4.491-3.088-7.381-3.088
		c-2.89,0-5.501,1.183-7.38,3.088H16.175v-5.253c0-2.698,1.337-5.08,3.383-6.53v8.615H21.2v-9.51
		c0.373-0.149,0.758-0.271,1.156-0.363v9.873h1.641V15.705c0.063-0.002,0.125-0.005,0.187-0.005h0.948v10.086h1.642V15.7h21.882
		c4.423,0,8.007,3.582,8.007,8.001v5.253H43.772z M44.374,36.216c0,4.397-3.58,7.975-7.981,7.975c-4.399,0-7.979-3.577-7.979-7.975
		c0-2.387,1.056-4.53,2.725-5.994c0.585-0.512,1.246-0.939,1.963-1.267c1.005-0.456,2.119-0.712,3.292-0.712
		c1.174,0,2.288,0.256,3.292,0.712c0.718,0.328,1.378,0.755,1.964,1.267C43.316,31.685,44.374,33.829,44.374,36.216 M24.183,56.363
		c-4.422,0-8.008-3.583-8.008-8.001V30.221h11.774c-1.205,1.692-1.916,3.761-1.916,5.994c0,5.718,4.637,10.352,10.358,10.352
		c5.721,0,10.359-4.634,10.359-10.352c0-2.233-0.713-4.302-1.916-5.994h11.826v18.141c0,4.418-3.584,8.001-8.008,8.001H24.183z"/>
	<path fill="#3E739D" d="M36.418,30.324c-3.258,0-5.898,2.638-5.898,5.892c0,3.256,2.641,5.895,5.898,5.895
		c3.256,0,5.898-2.64,5.898-5.895C42.316,32.962,39.676,30.324,36.418,30.324"/>
	<path fill="#3E739D" d="M51.717,19.046h-4.328c-0.71,0-1.285,0.575-1.285,1.283v4.421c0,0.708,0.575,1.283,1.285,1.283h4.328
		c0.709,0,1.285-0.575,1.285-1.283v-4.421C53.002,19.62,52.426,19.046,51.717,19.046"/>
</g>
</svg>
