<?xml version="1.0" encoding="utf-8"?>
<!-- Generator: Adobe Illustrator 15.0.1, SVG Export Plug-In . SVG Version: 6.00 Build 0)  -->
<!DOCTYPE svg PUBLIC "-//W3C//DTD SVG 1.1//EN" "http://www.w3.org/Graphics/SVG/1.1/DTD/svg11.dtd">
<svg version="1.1" id="Layer_1" xmlns="http://www.w3.org/2000/svg" xmlns:xlink="http://www.w3.org/1999/xlink" x="0px" y="0px"
	 width="72px" height="72.063px" viewBox="0 0 72 72.063" enable-background="new 0 0 72 72.063" xml:space="preserve">
<path fill="#4DC8F1" d="M72,0H0v72.063h72V0z M30.437,54.697c-4.715,0-9.104-1.383-12.799-3.752
	c4.43,0.523,8.852-0.706,12.362-3.458c-3.654-0.067-6.738-2.48-7.799-5.798c1.307,0.25,2.594,0.177,3.769-0.142
	c-4.015-0.808-6.787-4.425-6.697-8.293c1.126,0.625,2.414,1.001,3.783,1.044c-3.719-2.485-4.771-7.395-2.584-11.148
	c4.117,5.052,10.27,8.376,17.209,8.725c-1.217-5.224,2.745-10.253,8.134-10.253c2.402,0,4.572,1.013,6.095,2.637
	c1.901-0.374,3.688-1.07,5.301-2.027c-0.623,1.95-1.947,3.587-3.67,4.619c1.688-0.201,3.297-0.65,4.795-1.314
	c-1.119,1.675-2.535,3.145-4.166,4.322C54.698,41.603,45.94,54.697,30.437,54.697"/>
</svg>
