<?xml version="1.0" encoding="utf-8"?>
<!-- Generator: Adobe Illustrator 15.0.1, SVG Export Plug-In . SVG Version: 6.00 Build 0)  -->
<!DOCTYPE svg PUBLIC "-//W3C//DTD SVG 1.1//EN" "http://www.w3.org/Graphics/SVG/1.1/DTD/svg11.dtd">
<svg version="1.1" id="Layer_1" xmlns="http://www.w3.org/2000/svg" xmlns:xlink="http://www.w3.org/1999/xlink" x="0px" y="0px"
	 width="72px" height="72.063px" viewBox="0 0 72 72.063" enable-background="new 0 0 72 72.063" xml:space="preserve">
<path fill="#CE332D" d="M72,0H0v72.063h72V0z M16.515,52.5V38.572c0-3.045,2.467-5.516,5.513-5.516h28.344
	c3.045,0,5.512,2.471,5.512,5.516V52.5c0,3.047-2.467,5.514-5.512,5.514H22.028C18.982,58.014,16.515,55.547,16.515,52.5
	 M22.291,12.582h2.725l1.868,7.008l1.737-7.008h2.749l-3.151,10.422v7.111H25.51v-7.111L22.291,12.582z M43.315,27.967
	c0.47,0,1.121-0.602,1.416-0.969v-9.816h2.402v12.934h-2.402v-1.428c-1.044,1.236-2.054,1.613-2.782,1.613
	c-1.287,0-1.679-1.033-1.679-2.311V17.18h2.405v9.916C42.675,27.617,42.799,27.967,43.315,27.967 M34.771,17.074
	c1.95,0,3.458,1.451,3.458,3.477v6.338c0,2.172-1.523,3.467-3.458,3.467c-2.33,0-3.523-1.188-3.523-3.467v-6.338
	C31.248,18.475,32.653,17.074,34.771,17.074"/>
<path fill="#CE332D" d="M41.561,41.414c-0.818,0-1.52,0.52-2.036,1.15v-5.375h-2.314v16.697h2.314v-0.945
	c0.638,0.795,1.336,1.102,2.175,1.102c1.524,0,2.094-1.184,2.094-2.707v-6.834C43.794,42.832,43.238,41.414,41.561,41.414
	 M41.438,51.002c0,0.391-0.066,0.674-0.201,0.848c-0.251,0.33-0.797,0.314-1.169,0.125c-0.176-0.086-0.357-0.232-0.543-0.434v-7.674
	c0.155-0.17,0.311-0.295,0.473-0.377c0.4-0.201,0.919-0.162,1.195,0.203c0.161,0.215,0.245,0.531,0.245,0.945V51.002z"/>
<path fill="#CE332D" d="M32.688,50.92c-0.278,0.35-0.901,0.922-1.348,0.922c-0.488,0-0.608-0.334-0.608-0.83V41.57h-2.291v10.295
	c0,2.5,1.695,2.514,2.929,1.807c0.455-0.262,0.895-0.645,1.318-1.145v1.359h2.29V41.57h-2.29V50.92z"/>
<polygon fill="#CE332D" points="28.472,37.188 20.556,37.188 20.556,39.613 23.226,39.613 23.226,53.887 25.805,53.887 
	25.805,39.613 28.472,39.613 "/>
<path fill="#CE332D" d="M52.259,50.41v-0.926h-2.357v0.855c0,1.072-0.056,1.723-1.023,1.723c-0.923,0-1-0.797-1-1.723v-2.324h4.38
	v-3.135c0-2.227-1.064-3.623-3.26-3.623c-2.066,0-3.477,1.484-3.477,3.623v5.529c0,2.217,1.117,3.811,3.304,3.811
	C51.239,54.221,52.259,52.783,52.259,50.41 M47.879,44.859c0-0.848,0.174-1.445,1.022-1.445c0.823,0,1.001,0.611,1.001,1.445v1.246
	h-2.023V44.859z"/>
<path fill="#CE332D" d="M34.771,28.004c0.648,0,1.007-0.521,1.007-1.225v-6.018c0-0.723-0.316-1.232-1.053-1.232
	c-0.676,0-1.002,0.525-1.002,1.232v6.018C33.723,27.461,34.109,28.004,34.771,28.004"/>
</svg>
